solid OpenSCAD_Model
  facet normal -0.707107 0.707107 0
    outer loop
      vertex 10 10 0
      vertex 0 0 0
      vertex 10 10 10
    endloop
  endfacet
  facet normal 0 -0.707107 0.707107
    outer loop
      vertex 10 10 10
      vertex 0 0 0
      vertex 10 0 0
    endloop
  endfacet
  facet normal 0 0 -1
    outer loop
      vertex 10 0 0
      vertex 0 0 0
      vertex 10 10 0
    endloop
  endfacet
  facet normal 1 0 0
    outer loop
      vertex 10 10 10
      vertex 10 0 0
      vertex 10 10 0
    endloop
  endfacet
endsolid OpenSCAD_Model
