solid OpenSCAD_Model
  facet normal -0.850651 0.276393 0.447214
    outer loop
      vertex -54.3529 17.6603 35.3207
      vertex -54.3529 -17.6603 57.15
      vertex -51.4838 -11.8469 59.0144
    endloop
  endfacet
  facet normal -0.850651 0.276394 0.447213
    outer loop
      vertex -51.4838 -11.8469 59.0144
      vertex -54.3529 -17.6603 57.15
      vertex -34.6878 -6.38957 87.5894
    endloop
  endfacet
  facet normal -0.850651 0.276391 0.447214
    outer loop
      vertex -34.6878 -6.38957 87.5894
      vertex -54.3529 -17.6603 57.15
      vertex -33.5919 -10.9147 92.4706
    endloop
  endfacet
  facet normal -0.52573 -0.723608 0.447213
    outer loop
      vertex -33.5919 -10.9147 92.4706
      vertex -54.3529 -17.6603 57.15
      vertex -48.6147 -20.6771 59.0144
    endloop
  endfacet
  facet normal -0.52573 -0.723607 0.447215
    outer loop
      vertex -48.6147 -20.6771 59.0144
      vertex -54.3529 -17.6603 57.15
      vertex -31.8187 -43.7947 41.3541
    endloop
  endfacet
  facet normal -0.525732 -0.723607 0.447212
    outer loop
      vertex -31.8187 -43.7947 41.3541
      vertex -54.3529 -17.6603 57.15
      vertex -33.5919 -46.2353 35.3206
    endloop
  endfacet
  facet normal -0.850651 -0.276393 -0.447214
    outer loop
      vertex -33.5919 -46.2353 35.3206
      vertex -54.3529 -17.6603 57.15
      vertex -51.4838 -16.7281 51.1165
    endloop
  endfacet
  facet normal -0.85065 -0.276394 -0.447214
    outer loop
      vertex -51.4838 -16.7281 51.1165
      vertex -54.3529 -17.6603 57.15
      vertex -51.4838 11.8469 33.4562
    endloop
  endfacet
  facet normal -0.850651 -0.276393 -0.447214
    outer loop
      vertex -51.4838 11.8469 33.4562
      vertex -54.3529 -17.6603 57.15
      vertex -54.3529 17.6603 35.3207
    endloop
  endfacet
  facet normal -0.850651 -0.276393 -0.447213
    outer loop
      vertex -51.4838 11.8469 33.4562
      vertex -54.3529 17.6603 35.3207
      vertex -34.6878 6.38957 4.88122
    endloop
  endfacet
  facet normal -0.850651 -0.276392 -0.447214
    outer loop
      vertex -34.6878 6.38957 4.88122
      vertex -54.3529 17.6603 35.3207
      vertex -33.5919 10.9147 1.5e-05
    endloop
  endfacet
  facet normal -0.52573 0.723608 -0.447213
    outer loop
      vertex -33.5919 10.9147 1.5e-05
      vertex -54.3529 17.6603 35.3207
      vertex -48.6147 20.6771 33.4562
    endloop
  endfacet
  facet normal -0.52573 0.723607 -0.447215
    outer loop
      vertex -48.6147 20.6771 33.4562
      vertex -54.3529 17.6603 35.3207
      vertex -31.8187 43.7947 51.1165
    endloop
  endfacet
  facet normal -0.525731 0.723607 -0.447214
    outer loop
      vertex -31.8187 43.7947 51.1165
      vertex -54.3529 17.6603 35.3207
      vertex -33.5919 46.2353 57.15
    endloop
  endfacet
  facet normal -0.850651 0.276394 0.447213
    outer loop
      vertex -33.5919 46.2353 57.15
      vertex -54.3529 17.6603 35.3207
      vertex -51.4838 16.7281 41.3541
    endloop
  endfacet
  facet normal -0.850651 0.276392 0.447213
    outer loop
      vertex -51.4838 16.7281 41.3541
      vertex -54.3529 17.6603 35.3207
      vertex -51.4838 -11.8469 59.0144
    endloop
  endfacet
  facet normal 0.525729 0.447214 0.723608
    outer loop
      vertex -51.4838 16.7281 41.3541
      vertex -51.4838 -11.8469 59.0144
      vertex -43.9724 -14.2875 55.0655
    endloop
  endfacet
  facet normal 0.16246 0.947214 -0.276393
    outer loop
      vertex -43.9724 -14.2875 55.0655
      vertex -51.4838 -11.8469 59.0144
      vertex -27.1764 -8.83018 83.6405
    endloop
  endfacet
  facet normal 0.162461 0.947213 -0.276394
    outer loop
      vertex -27.1764 -8.83018 83.6405
      vertex -51.4838 -11.8469 59.0144
      vertex -34.6878 -6.38957 87.5894
    endloop
  endfacet
  facet normal -0.425325 0.138197 -0.894427
    outer loop
      vertex -16.796 23.1177 83.6405
      vertex -34.6878 -6.38957 87.5894
      vertex -24.3073 25.5582 87.5894
    endloop
  endfacet
  facet normal -0.85065 0.276393 0.447216
    outer loop
      vertex -24.3073 25.5582 87.5894
      vertex -34.6878 -6.38957 87.5894
      vertex -33.5919 -10.9147 92.4706
    endloop
  endfacet
  facet normal -0.425325 0.138196 -0.894428
    outer loop
      vertex -27.1764 -8.83018 83.6405
      vertex -34.6878 -6.38957 87.5894
      vertex -16.796 23.1177 83.6405
    endloop
  endfacet
  facet normal 0 0 1
    outer loop
      vertex -27.1764 -8.83018 92.4706
      vertex -33.5919 -10.9147 92.4706
      vertex 1.1e-05 -35.3206 92.4706
    endloop
  endfacet
  facet normal 0 0 1
    outer loop
      vertex 1.1e-05 -28.575 92.4706
      vertex -27.1764 -8.83018 92.4706
      vertex 1.1e-05 -35.3206 92.4706
    endloop
  endfacet
  facet normal 0 0 1
    outer loop
      vertex 33.5919 -10.9147 92.4706
      vertex 1.1e-05 -28.575 92.4706
      vertex 1.1e-05 -35.3206 92.4706
    endloop
  endfacet
  facet normal 0 0 1
    outer loop
      vertex 27.1764 -8.83018 92.4706
      vertex 1.1e-05 -28.575 92.4706
      vertex 33.5919 -10.9147 92.4706
    endloop
  endfacet
  facet normal -0.525731 -0.723606 0.447215
    outer loop
      vertex 1.1e-05 -35.3206 92.4706
      vertex -33.5919 -10.9147 92.4706
      vertex -31.8187 -15.2197 87.5894
    endloop
  endfacet
  facet normal -0.525732 -0.723606 0.447214
    outer loop
      vertex -33.5919 -10.9147 92.4706
      vertex -48.6147 -20.6771 59.0144
      vertex -31.8187 -15.2197 87.5894
    endloop
  endfacet
  facet normal -0.85065 0.276393 0.447215
    outer loop
      vertex -24.3073 25.5582 87.5894
      vertex -33.5919 -10.9147 92.4706
      vertex -20.7609 28.575 92.4706
    endloop
  endfacet
  facet normal 7.35926e-08 -2.26496e-07 1
    outer loop
      vertex -20.7609 28.575 92.4706
      vertex -33.5919 -10.9147 92.4706
      vertex -27.1764 -8.83018 92.4706
    endloop
  endfacet
  facet normal 0.688191 -0.67082 -0.276394
    outer loop
      vertex -31.8187 -15.2197 87.5894
      vertex -48.6147 -20.6771 59.0144
      vertex -43.9724 -14.2875 55.0655
    endloop
  endfacet
  facet normal 0.68819 -0.0527876 0.723607
    outer loop
      vertex -43.9724 -14.2875 55.0655
      vertex -48.6147 -20.6771 59.0144
      vertex -27.1764 -37.4051 37.4052
    endloop
  endfacet
  facet normal 0.688192 -0.0527851 0.723606
    outer loop
      vertex -27.1764 -37.4051 37.4052
      vertex -48.6147 -20.6771 59.0144
      vertex -31.8187 -43.7947 41.3541
    endloop
  endfacet
  facet normal -0.262865 0.638198 0.723606
    outer loop
      vertex -27.1764 -37.4051 37.4052
      vertex -31.8187 -43.7947 41.3541
      vertex 1.1e-05 -46.2353 55.0655
    endloop
  endfacet
  facet normal -0.262866 0.638195 0.723608
    outer loop
      vertex 1.1e-05 -46.2353 55.0655
      vertex -31.8187 -43.7947 41.3541
      vertex -4.64228 -52.6249 59.0144
    endloop
  endfacet
  facet normal -0.52573 -0.723608 0.447212
    outer loop
      vertex -31.8187 -43.7947 41.3541
      vertex -33.5919 -46.2353 35.3206
      vertex -4.64228 -52.6249 59.0144
    endloop
  endfacet
  facet normal -0.525731 -0.723607 0.447213
    outer loop
      vertex -4.64228 -52.6249 59.0144
      vertex -33.5919 -46.2353 35.3206
      vertex 1.1e-05 -57.15 57.15
    endloop
  endfacet
  facet normal 1.35074e-07 -0.894427 -0.447214
    outer loop
      vertex 1.1e-05 -57.15 57.15
      vertex -33.5919 -46.2353 35.3206
      vertex -27.1764 -45.3031 33.4562
    endloop
  endfacet
  facet normal 1.49021e-07 -0.894427 -0.447214
    outer loop
      vertex -27.1764 -45.3031 33.4562
      vertex -33.5919 -46.2353 35.3206
      vertex -16.796 -31.0156 4.88122
    endloop
  endfacet
  facet normal 2.26838e-06 -0.894427 -0.447213
    outer loop
      vertex -16.796 -31.0156 4.88122
      vertex -33.5919 -46.2353 35.3206
      vertex -20.7609 -28.575 8e-06
    endloop
  endfacet
  facet normal -0.85065 -0.276395 -0.447214
    outer loop
      vertex -33.5919 -46.2353 35.3206
      vertex -34.6878 -39.8457 33.4562
      vertex -20.7609 -28.575 8e-06
    endloop
  endfacet
  facet normal -0.850651 -0.276394 -0.447212
    outer loop
      vertex -33.5919 -46.2353 35.3206
      vertex -51.4838 -16.7281 51.1165
      vertex -34.6878 -39.8457 33.4562
    endloop
  endfacet
  facet normal 0.16246 0.670821 -0.723606
    outer loop
      vertex -34.6878 -39.8457 33.4562
      vertex -51.4838 -16.7281 51.1165
      vertex -43.9724 -14.2875 55.0655
    endloop
  endfacet
  facet normal 0.52573 -0.447214 -0.723607
    outer loop
      vertex -43.9724 -14.2875 55.0655
      vertex -51.4838 -16.7281 51.1165
      vertex -43.9724 14.2875 37.4052
    endloop
  endfacet
  facet normal 0.525729 -0.447214 -0.723608
    outer loop
      vertex -43.9724 14.2875 37.4052
      vertex -51.4838 -16.7281 51.1165
      vertex -51.4838 11.8469 33.4562
    endloop
  endfacet
  facet normal 0.16246 -0.947214 0.276393
    outer loop
      vertex -43.9724 14.2875 37.4052
      vertex -51.4838 11.8469 33.4562
      vertex -27.1764 8.83018 8.83019
    endloop
  endfacet
  facet normal 0.162461 -0.947213 0.276394
    outer loop
      vertex -27.1764 8.83018 8.83019
      vertex -51.4838 11.8469 33.4562
      vertex -34.6878 6.38957 4.88122
    endloop
  endfacet
  facet normal -0.425325 -0.138196 0.894428
    outer loop
      vertex -16.796 -23.1176 8.83019
      vertex -34.6878 6.38957 4.88122
      vertex -24.3073 -25.5582 4.88122
    endloop
  endfacet
  facet normal -0.85065 -0.276393 -0.447215
    outer loop
      vertex -24.3073 -25.5582 4.88122
      vertex -34.6878 6.38957 4.88122
      vertex -33.5919 10.9147 1.5e-05
    endloop
  endfacet
  facet normal -0.425325 -0.138197 0.894427
    outer loop
      vertex -27.1764 8.83018 8.83019
      vertex -34.6878 6.38957 4.88122
      vertex -16.796 -23.1176 8.83019
    endloop
  endfacet
  facet normal -0.525731 0.723607 -0.447214
    outer loop
      vertex 1.1e-05 35.3206 1.5e-05
      vertex -33.5919 10.9147 1.5e-05
      vertex -31.8187 15.2197 4.88123
    endloop
  endfacet
  facet normal -0.525731 0.723607 -0.447213
    outer loop
      vertex -33.5919 10.9147 1.5e-05
      vertex -48.6147 20.6771 33.4562
      vertex -31.8187 15.2197 4.88123
    endloop
  endfacet
  facet normal -0.850651 -0.276393 -0.447214
    outer loop
      vertex -24.3073 -25.5582 4.88122
      vertex -33.5919 10.9147 1.5e-05
      vertex -20.7609 -28.575 8e-06
    endloop
  endfacet
  facet normal 6.43935e-08 1.98184e-07 -1
    outer loop
      vertex -20.7609 -28.575 8e-06
      vertex -33.5919 10.9147 1.5e-05
      vertex -27.1764 8.83018 1.5e-05
    endloop
  endfacet
  facet normal 0 0 -1
    outer loop
      vertex -33.5919 10.9147 1.5e-05
      vertex 1.1e-05 35.3206 1.5e-05
      vertex -27.1764 8.83018 1.5e-05
    endloop
  endfacet
  facet normal 0 0 -1
    outer loop
      vertex 0.35 30 1.5e-05
      vertex 1.1e-05 35.3206 1.5e-05
      vertex 33.5919 10.9147 1.5e-05
    endloop
  endfacet
  facet normal 0 0 -1
    outer loop
      vertex 28.7659 9.53061 1.5e-05
      vertex 33.5919 10.9147 1.5e-05
      vertex 28.82 9.36419 1.5e-05
    endloop
  endfacet
  facet normal 0 0 -1
    outer loop
      vertex 28.4235 9.60338 1.5e-05
      vertex 33.5919 10.9147 1.5e-05
      vertex 28.7659 9.53061 1.5e-05
    endloop
  endfacet
  facet normal 0 0 -1
    outer loop
      vertex 1.1e-05 28.575 1.5e-05
      vertex 28.4235 9.60338 1.5e-05
      vertex 28.1893 9.34328 1.5e-05
    endloop
  endfacet
  facet normal 0 0 -1
    outer loop
      vertex 1.1e-05 28.575 1.5e-05
      vertex 28.1893 9.34328 1.5e-05
      vertex 28.2434 9.17686 1.5e-05
    endloop
  endfacet
  facet normal 0 0 -1
    outer loop
      vertex 1.1e-05 28.575 1.5e-05
      vertex 33.5919 10.9147 1.5e-05
      vertex 28.4235 9.60338 1.5e-05
    endloop
  endfacet
  facet normal 0 0 -1
    outer loop
      vertex 0.175 29.6969 1.5e-05
      vertex 1.1e-05 28.575 1.5e-05
      vertex -0.175 29.6969 1.5e-05
    endloop
  endfacet
  facet normal 0 0 -1
    outer loop
      vertex -27.1764 8.83018 1.5e-05
      vertex 1.1e-05 35.3206 1.5e-05
      vertex -0.35 30 1.5e-05
    endloop
  endfacet
  facet normal 0 0 -1
    outer loop
      vertex -27.1764 8.83018 1.5e-05
      vertex -0.35 30 1.5e-05
      vertex 1.1e-05 28.575 1.5e-05
    endloop
  endfacet
  facet normal 0 0 -1
    outer loop
      vertex -0.35 30 1.5e-05
      vertex -0.175 29.6969 1.5e-05
      vertex 1.1e-05 28.575 1.5e-05
    endloop
  endfacet
  facet normal 0 0 -1
    outer loop
      vertex -0.175 30.3031 1.5e-05
      vertex 1.1e-05 35.3206 1.5e-05
      vertex 0.175 30.3031 1.5e-05
    endloop
  endfacet
  facet normal 0 0 -1
    outer loop
      vertex 1.1e-05 28.575 1.5e-05
      vertex 0.175 29.6969 1.5e-05
      vertex 33.5919 10.9147 1.5e-05
    endloop
  endfacet
  facet normal 0 0 -1
    outer loop
      vertex 0.175 30.3031 1.5e-05
      vertex 1.1e-05 35.3206 1.5e-05
      vertex 0.35 30 1.5e-05
    endloop
  endfacet
  facet normal 0 0 -1
    outer loop
      vertex 0.175 29.6969 1.5e-05
      vertex 0.35 30 1.5e-05
      vertex 33.5919 10.9147 1.5e-05
    endloop
  endfacet
  facet normal 0 0 -1
    outer loop
      vertex -0.35 30 1.5e-05
      vertex 1.1e-05 35.3206 1.5e-05
      vertex -0.175 30.3031 1.5e-05
    endloop
  endfacet
  facet normal 0 0 -1
    outer loop
      vertex 1.1e-05 28.575 1.5e-05
      vertex 28.2434 9.17686 1.5e-05
      vertex 27.1764 8.83018 1.5e-05
    endloop
  endfacet
  facet normal 0.688191 0.67082 0.276394
    outer loop
      vertex -31.8187 15.2197 4.88123
      vertex -48.6147 20.6771 33.4562
      vertex -43.9724 14.2875 37.4052
    endloop
  endfacet
  facet normal 0.68819 0.0527878 -0.723607
    outer loop
      vertex -43.9724 14.2875 37.4052
      vertex -48.6147 20.6771 33.4562
      vertex -27.1764 37.4051 55.0655
    endloop
  endfacet
  facet normal 0.688191 0.052787 -0.723607
    outer loop
      vertex -27.1764 37.4051 55.0655
      vertex -48.6147 20.6771 33.4562
      vertex -31.8187 43.7947 51.1165
    endloop
  endfacet
  facet normal -0.262866 -0.638196 -0.723607
    outer loop
      vertex 1.1e-05 46.2353 37.4052
      vertex -31.8187 43.7947 51.1165
      vertex -4.64228 52.6249 33.4562
    endloop
  endfacet
  facet normal -0.525731 0.723607 -0.447214
    outer loop
      vertex -31.8187 43.7947 51.1165
      vertex -33.5919 46.2353 57.15
      vertex -4.64228 52.6249 33.4562
    endloop
  endfacet
  facet normal -0.262866 -0.638196 -0.723607
    outer loop
      vertex -27.1764 37.4051 55.0655
      vertex -31.8187 43.7947 51.1165
      vertex 1.1e-05 46.2353 37.4052
    endloop
  endfacet
  facet normal 3.90282e-07 0.894427 0.447214
    outer loop
      vertex -16.796 31.0156 87.5894
      vertex -33.5919 46.2353 57.15
      vertex -20.7609 28.575 92.4706
    endloop
  endfacet
  facet normal -0.85065 0.276395 0.447214
    outer loop
      vertex -33.5919 46.2353 57.15
      vertex -34.6878 39.8457 59.0145
      vertex -20.7609 28.575 92.4706
    endloop
  endfacet
  facet normal -0.850651 0.276394 0.447212
    outer loop
      vertex -33.5919 46.2353 57.15
      vertex -51.4838 16.7281 41.3541
      vertex -34.6878 39.8457 59.0145
    endloop
  endfacet
  facet normal -0.525731 0.723607 -0.447214
    outer loop
      vertex -4.64228 52.6249 33.4562
      vertex -33.5919 46.2353 57.15
      vertex 1.1e-05 57.15 35.3207
    endloop
  endfacet
  facet normal 5.42183e-07 0.894427 0.447214
    outer loop
      vertex 1.1e-05 57.15 35.3207
      vertex -33.5919 46.2353 57.15
      vertex -27.1764 45.3031 59.0145
    endloop
  endfacet
  facet normal 7.60682e-07 0.894427 0.447214
    outer loop
      vertex -27.1764 45.3031 59.0145
      vertex -33.5919 46.2353 57.15
      vertex -16.796 31.0156 87.5894
    endloop
  endfacet
  facet normal 0.162462 -0.670821 0.723606
    outer loop
      vertex -34.6878 39.8457 59.0145
      vertex -51.4838 16.7281 41.3541
      vertex -43.9724 14.2875 37.4052
    endloop
  endfacet
  facet normal 0.525732 0.447213 0.723606
    outer loop
      vertex -43.9724 14.2875 37.4052
      vertex -51.4838 16.7281 41.3541
      vertex -43.9724 -14.2875 55.0655
    endloop
  endfacet
  facet normal 0.68819 -0.670821 -0.276393
    outer loop
      vertex -31.8187 -15.2197 87.5894
      vertex -43.9724 -14.2875 55.0655
      vertex -27.1764 -8.83018 83.6405
    endloop
  endfacet
  facet normal 0.162458 0.67082 -0.723607
    outer loop
      vertex -34.6878 -39.8457 33.4562
      vertex -43.9724 -14.2875 55.0655
      vertex -27.1764 -37.4051 37.4052
    endloop
  endfacet
  facet normal -0.262865 -0.361803 -0.894428
    outer loop
      vertex -4.64228 -34.9646 87.5894
      vertex -31.8187 -15.2197 87.5894
      vertex -27.1764 -8.83018 83.6405
    endloop
  endfacet
  facet normal -0.262865 -0.361803 -0.894427
    outer loop
      vertex -4.64228 -34.9646 87.5894
      vertex -27.1764 -8.83018 83.6405
      vertex 1.1e-05 -28.575 83.6405
    endloop
  endfacet
  facet normal 0.587785 0.809017 0
    outer loop
      vertex 1.1e-05 -28.575 83.6405
      vertex -27.1764 -8.83018 83.6405
      vertex -27.1764 -8.83018 92.4706
    endloop
  endfacet
  facet normal 0.951057 -0.309017 0
    outer loop
      vertex -27.1764 -8.83018 92.4706
      vertex -27.1764 -8.83018 83.6405
      vertex -16.796 23.1177 83.6405
    endloop
  endfacet
  facet normal 0.951057 -0.309017 0
    outer loop
      vertex -16.796 23.1177 92.4706
      vertex -27.1764 -8.83018 92.4706
      vertex -16.796 23.1177 83.6405
    endloop
  endfacet
  facet normal 0 0.447214 -0.894427
    outer loop
      vertex -16.796 23.1177 83.6405
      vertex -16.796 31.0156 87.5894
      vertex 16.796 23.1177 83.6405
    endloop
  endfacet
  facet normal 0 0.447214 -0.894427
    outer loop
      vertex 16.796 23.1177 83.6405
      vertex -16.796 31.0156 87.5894
      vertex 16.796 31.0156 87.5894
    endloop
  endfacet
  facet normal 0.951056 0.138197 -0.276393
    outer loop
      vertex -16.796 23.1177 83.6405
      vertex -27.1764 45.3031 59.0145
      vertex -16.796 31.0156 87.5894
    endloop
  endfacet
  facet normal 0.951056 0.138196 -0.276394
    outer loop
      vertex -16.796 23.1177 83.6405
      vertex -27.1764 37.4051 55.0655
      vertex -27.1764 45.3031 59.0145
    endloop
  endfacet
  facet normal -0.425324 -0.861804 -0.276393
    outer loop
      vertex -24.3073 25.5582 87.5894
      vertex -27.1764 37.4051 55.0655
      vertex -16.796 23.1177 83.6405
    endloop
  endfacet
  facet normal 0 -1 0
    outer loop
      vertex -16.796 23.1177 92.4706
      vertex -16.796 23.1177 83.6405
      vertex 16.796 23.1177 83.6405
    endloop
  endfacet
  facet normal 0 -1 0
    outer loop
      vertex 16.796 23.1177 92.4706
      vertex -16.796 23.1177 92.4706
      vertex 16.796 23.1177 83.6405
    endloop
  endfacet
  facet normal -0.425326 -0.861803 -0.276393
    outer loop
      vertex -24.3073 25.5582 87.5894
      vertex -34.6878 39.8457 59.0145
      vertex -27.1764 37.4051 55.0655
    endloop
  endfacet
  facet normal -0.85065 0.276394 0.447214
    outer loop
      vertex -20.7609 28.575 92.4706
      vertex -34.6878 39.8457 59.0145
      vertex -24.3073 25.5582 87.5894
    endloop
  endfacet
  facet normal 0.587785 0.809017 1.8324e-07
    outer loop
      vertex 1.1e-05 -28.575 83.6405
      vertex -27.1764 -8.83018 92.4706
      vertex 1.1e-05 -28.575 92.4706
    endloop
  endfacet
  facet normal -2.38152e-07 -1.73028e-07 1
    outer loop
      vertex -20.7609 28.575 92.4706
      vertex -27.1764 -8.83018 92.4706
      vertex -16.796 23.1177 92.4706
    endloop
  endfacet
  facet normal -0.587785 0.809017 1.83239e-07
    outer loop
      vertex 1.1e-05 -28.575 83.6405
      vertex 1.1e-05 -28.575 92.4706
      vertex 27.1764 -8.83018 83.6405
    endloop
  endfacet
  facet normal -0.587785 0.809017 0
    outer loop
      vertex 27.1764 -8.83018 83.6405
      vertex 1.1e-05 -28.575 92.4706
      vertex 27.1764 -8.83018 92.4706
    endloop
  endfacet
  facet normal -0.951057 -0.309017 0
    outer loop
      vertex 16.796 23.1177 83.6405
      vertex 27.1764 -8.83018 83.6405
      vertex 16.796 23.1177 92.4706
    endloop
  endfacet
  facet normal -0.951057 -0.309017 0
    outer loop
      vertex 16.796 23.1177 92.4706
      vertex 27.1764 -8.83018 83.6405
      vertex 27.1764 -8.83018 92.4706
    endloop
  endfacet
  facet normal -9.09653e-08 -2.79965e-07 1
    outer loop
      vertex 33.5919 -10.9147 92.4706
      vertex 16.796 23.1177 92.4706
      vertex 27.1764 -8.83018 92.4706
    endloop
  endfacet
  facet normal 1.9267e-07 -1.39982e-07 1
    outer loop
      vertex 20.7609 28.575 92.4706
      vertex 16.796 23.1177 92.4706
      vertex 33.5919 -10.9147 92.4706
    endloop
  endfacet
  facet normal 0.85065 0.276393 0.447216
    outer loop
      vertex 34.6878 -6.38957 87.5894
      vertex 20.7609 28.575 92.4706
      vertex 33.5919 -10.9147 92.4706
    endloop
  endfacet
  facet normal 0.850651 0.276391 0.447214
    outer loop
      vertex 34.6878 -6.38957 87.5894
      vertex 33.5919 -10.9147 92.4706
      vertex 51.4838 -11.8469 59.0144
    endloop
  endfacet
  facet normal 0.850651 0.276392 0.447214
    outer loop
      vertex 51.4838 -11.8469 59.0144
      vertex 33.5919 -10.9147 92.4706
      vertex 54.3529 -17.6603 57.15
    endloop
  endfacet
  facet normal 0.525732 -0.723606 0.447214
    outer loop
      vertex 33.5919 -10.9147 92.4706
      vertex 31.8187 -15.2197 87.5894
      vertex 54.3529 -17.6603 57.15
    endloop
  endfacet
  facet normal 0.52573 -0.723606 0.447215
    outer loop
      vertex 33.5919 -10.9147 92.4706
      vertex 4.64229 -34.9646 87.5894
      vertex 31.8187 -15.2197 87.5894
    endloop
  endfacet
  facet normal 0.525732 -0.723607 0.447212
    outer loop
      vertex 33.5919 -10.9147 92.4706
      vertex 1.1e-05 -35.3206 92.4706
      vertex 4.64229 -34.9646 87.5894
    endloop
  endfacet
  facet normal 0.525732 -0.723606 0.447213
    outer loop
      vertex 4.64229 -34.9646 87.5894
      vertex 1.1e-05 -35.3206 92.4706
      vertex 4.64229 -52.6249 59.0144
    endloop
  endfacet
  facet normal 0.525732 -0.723606 0.447213
    outer loop
      vertex 1.1e-05 -35.3206 92.4706
      vertex 1.1e-05 -57.15 57.15
      vertex 4.64229 -52.6249 59.0144
    endloop
  endfacet
  facet normal -0.525731 -0.723607 0.447213
    outer loop
      vertex 1.1e-05 -35.3206 92.4706
      vertex -4.64228 -34.9646 87.5894
      vertex 1.1e-05 -57.15 57.15
    endloop
  endfacet
  facet normal -0.525731 -0.723607 0.447213
    outer loop
      vertex 1.1e-05 -35.3206 92.4706
      vertex -31.8187 -15.2197 87.5894
      vertex -4.64228 -34.9646 87.5894
    endloop
  endfacet
  facet normal 0 0.894427 0.447214
    outer loop
      vertex -20.7609 28.575 92.4706
      vertex 20.7609 28.575 92.4706
      vertex -16.796 31.0156 87.5894
    endloop
  endfacet
  facet normal 0 0.894427 0.447214
    outer loop
      vertex -16.796 31.0156 87.5894
      vertex 20.7609 28.575 92.4706
      vertex 16.796 31.0156 87.5894
    endloop
  endfacet
  facet normal 0 0 1
    outer loop
      vertex 20.7609 28.575 92.4706
      vertex -20.7609 28.575 92.4706
      vertex -16.796 23.1177 92.4706
    endloop
  endfacet
  facet normal 0 0 1
    outer loop
      vertex 16.796 23.1177 92.4706
      vertex 20.7609 28.575 92.4706
      vertex -16.796 23.1177 92.4706
    endloop
  endfacet
  facet normal -0.425324 0.861804 0.276394
    outer loop
      vertex -24.3073 -25.5582 4.88122
      vertex -34.6878 -39.8457 33.4562
      vertex -27.1764 -37.4051 37.4052
    endloop
  endfacet
  facet normal -0.425326 0.861803 0.276393
    outer loop
      vertex -24.3073 -25.5582 4.88122
      vertex -27.1764 -37.4051 37.4052
      vertex -16.796 -23.1176 8.83019
    endloop
  endfacet
  facet normal 0.951056 -0.138196 0.276394
    outer loop
      vertex -27.1764 -37.4051 37.4052
      vertex -27.1764 -45.3031 33.4562
      vertex -16.796 -23.1176 8.83019
    endloop
  endfacet
  facet normal 0.587785 0.361802 -0.723608
    outer loop
      vertex 1.1e-05 -54.1332 51.1165
      vertex -27.1764 -45.3031 33.4562
      vertex -27.1764 -37.4051 37.4052
    endloop
  endfacet
  facet normal 0.587786 0.361804 -0.723606
    outer loop
      vertex 1.1e-05 -54.1332 51.1165
      vertex -27.1764 -37.4051 37.4052
      vertex 1.1e-05 -46.2353 55.0655
    endloop
  endfacet
  facet normal 0.850651 0.447213 -0.276393
    outer loop
      vertex 4.64229 -34.9646 87.5894
      vertex 1.1e-05 -46.2353 55.0655
      vertex 1.1e-05 -28.575 83.6405
    endloop
  endfacet
  facet normal -0.85065 0.447214 -0.276394
    outer loop
      vertex 1.1e-05 -46.2353 55.0655
      vertex -4.64228 -52.6249 59.0144
      vertex 1.1e-05 -28.575 83.6405
    endloop
  endfacet
  facet normal -0.587785 0.361804 -0.723607
    outer loop
      vertex 27.1764 -45.3031 33.4562
      vertex 1.1e-05 -54.1332 51.1165
      vertex 1.1e-05 -46.2353 55.0655
    endloop
  endfacet
  facet normal -0.587786 0.361802 -0.723607
    outer loop
      vertex 27.1764 -45.3031 33.4562
      vertex 1.1e-05 -46.2353 55.0655
      vertex 27.1764 -37.4051 37.4052
    endloop
  endfacet
  facet normal 0.262867 0.638195 0.723608
    outer loop
      vertex 27.1764 -37.4051 37.4052
      vertex 1.1e-05 -46.2353 55.0655
      vertex 4.64229 -52.6249 59.0144
    endloop
  endfacet
  facet normal 0.850651 0.447213 -0.276393
    outer loop
      vertex 4.64229 -52.6249 59.0144
      vertex 1.1e-05 -46.2353 55.0655
      vertex 4.64229 -34.9646 87.5894
    endloop
  endfacet
  facet normal -0.85065 0.447214 -0.276393
    outer loop
      vertex 1.1e-05 -28.575 83.6405
      vertex -4.64228 -52.6249 59.0144
      vertex -4.64228 -34.9646 87.5894
    endloop
  endfacet
  facet normal -0.525731 -0.723607 0.447213
    outer loop
      vertex -4.64228 -34.9646 87.5894
      vertex -4.64228 -52.6249 59.0144
      vertex 1.1e-05 -57.15 57.15
    endloop
  endfacet
  facet normal 0.525731 -0.723606 0.447215
    outer loop
      vertex 4.64229 -52.6249 59.0144
      vertex 1.1e-05 -57.15 57.15
      vertex 31.8187 -43.7947 41.3541
    endloop
  endfacet
  facet normal 0.525731 -0.723608 0.447213
    outer loop
      vertex 31.8187 -43.7947 41.3541
      vertex 1.1e-05 -57.15 57.15
      vertex 33.5919 -46.2353 35.3206
    endloop
  endfacet
  facet normal -2.9529e-07 -0.894427 -0.447214
    outer loop
      vertex 33.5919 -46.2353 35.3206
      vertex 1.1e-05 -57.15 57.15
      vertex 1.1e-05 -54.1332 51.1165
    endloop
  endfacet
  facet normal 3.50027e-07 -0.894427 -0.447214
    outer loop
      vertex 1.1e-05 -57.15 57.15
      vertex -27.1764 -45.3031 33.4562
      vertex 1.1e-05 -54.1332 51.1165
    endloop
  endfacet
  facet normal 0.951056 -0.138197 0.276393
    outer loop
      vertex -16.796 -23.1176 8.83019
      vertex -27.1764 -45.3031 33.4562
      vertex -16.796 -31.0156 4.88122
    endloop
  endfacet
  facet normal 0 -0.447213 0.894427
    outer loop
      vertex -16.796 -23.1176 8.83019
      vertex -16.796 -31.0156 4.88122
      vertex 16.796 -31.0156 4.88122
    endloop
  endfacet
  facet normal 0 -0.447213 0.894427
    outer loop
      vertex 16.796 -23.1176 8.83019
      vertex -16.796 -23.1176 8.83019
      vertex 16.796 -31.0156 4.88122
    endloop
  endfacet
  facet normal 0 -0.894428 -0.447212
    outer loop
      vertex -16.796 -31.0156 4.88122
      vertex -20.7609 -28.575 8e-06
      vertex 20.7609 -28.575 8e-06
    endloop
  endfacet
  facet normal 0 -0.894428 -0.447212
    outer loop
      vertex 16.796 -31.0156 4.88122
      vertex -16.796 -31.0156 4.88122
      vertex 20.7609 -28.575 8e-06
    endloop
  endfacet
  facet normal -0.850651 -0.276393 -0.447214
    outer loop
      vertex -20.7609 -28.575 8e-06
      vertex -34.6878 -39.8457 33.4562
      vertex -24.3073 -25.5582 4.88122
    endloop
  endfacet
  facet normal 0 0 -1
    outer loop
      vertex -20.7609 -28.575 8e-06
      vertex -17.6701 -24.6186 8e-06
      vertex 20.7609 -28.575 8e-06
    endloop
  endfacet
  facet normal 0 0 -1
    outer loop
      vertex -20.7609 -28.575 8e-06
      vertex -17.8117 -24.5157 8e-06
      vertex -17.6701 -24.6186 8e-06
    endloop
  endfacet
  facet normal 0 0 -1
    outer loop
      vertex 20.7609 -28.575 8e-06
      vertex -17.3504 -24.4762 8e-06
      vertex -17.3138 -24.1282 8e-06
    endloop
  endfacet
  facet normal 0 0 -1
    outer loop
      vertex -17.3138 -24.1282 8e-06
      vertex -17.4554 -24.0253 8e-06
      vertex 20.7609 -28.575 8e-06
    endloop
  endfacet
  facet normal 0 0 -1
    outer loop
      vertex 20.7609 -28.575 8e-06
      vertex -17.4554 -24.0253 8e-06
      vertex -16.796 -23.1176 8e-06
    endloop
  endfacet
  facet normal 0 0 -1
    outer loop
      vertex 20.7609 -28.575 8e-06
      vertex -16.796 -23.1176 8e-06
      vertex 16.796 -23.1176 8e-06
    endloop
  endfacet
  facet normal 0 0 -1
    outer loop
      vertex -17.3504 -24.4762 8e-06
      vertex 20.7609 -28.575 8e-06
      vertex -17.6701 -24.6186 8e-06
    endloop
  endfacet
  facet normal -2.08383e-07 1.51399e-07 -1
    outer loop
      vertex -27.1764 8.83018 1.5e-05
      vertex -16.796 -23.1176 8e-06
      vertex -17.4554 -24.0253 8e-06
    endloop
  endfacet
  facet normal -2.08383e-07 1.51399e-07 -1
    outer loop
      vertex -27.1764 8.83018 1.5e-05
      vertex -17.4554 -24.0253 8e-06
      vertex -17.597 -23.9224 8.04507e-06
    endloop
  endfacet
  facet normal -2.08383e-07 1.51399e-07 -1
    outer loop
      vertex -27.1764 8.83018 1.5e-05
      vertex -17.597 -23.9224 8.04507e-06
      vertex -17.9167 -24.0648 8.09015e-06
    endloop
  endfacet
  facet normal -2.08383e-07 1.51399e-07 -1
    outer loop
      vertex -27.1764 8.83018 1.5e-05
      vertex -17.9167 -24.0648 8.09015e-06
      vertex -20.7609 -28.575 8e-06
    endloop
  endfacet
  facet normal -2.08383e-07 1.51399e-07 -1
    outer loop
      vertex -17.9167 -24.0648 8.09015e-06
      vertex -17.9533 -24.4129 8.04507e-06
      vertex -20.7609 -28.575 8e-06
    endloop
  endfacet
  facet normal -2.08383e-07 1.51399e-07 -1
    outer loop
      vertex -17.8117 -24.5157 8e-06
      vertex -20.7609 -28.575 8e-06
      vertex -17.9533 -24.4129 8.04507e-06
    endloop
  endfacet
  facet normal 0.162457 -0.67082 0.723607
    outer loop
      vertex -34.6878 39.8457 59.0145
      vertex -43.9724 14.2875 37.4052
      vertex -27.1764 37.4051 55.0655
    endloop
  endfacet
  facet normal 0.68819 0.670821 0.276393
    outer loop
      vertex -31.8187 15.2197 4.88123
      vertex -43.9724 14.2875 37.4052
      vertex -27.1764 8.83018 8.83019
    endloop
  endfacet
  facet normal -0.262866 0.361803 0.894427
    outer loop
      vertex -4.64228 34.9646 4.88123
      vertex -31.8187 15.2197 4.88123
      vertex -27.1764 8.83018 8.83019
    endloop
  endfacet
  facet normal -0.262865 0.361803 0.894428
    outer loop
      vertex -4.64228 34.9646 4.88123
      vertex -27.1764 8.83018 8.83019
      vertex 1.1e-05 28.575 8.83019
    endloop
  endfacet
  facet normal 0.587785 -0.809017 0
    outer loop
      vertex -27.1764 8.83018 8.83019
      vertex -27.1764 8.83018 1.5e-05
      vertex 1.1e-05 28.575 1.5e-05
    endloop
  endfacet
  facet normal 0.587785 -0.809017 0
    outer loop
      vertex 1.1e-05 28.575 8.83019
      vertex -27.1764 8.83018 8.83019
      vertex 1.1e-05 28.575 1.5e-05
    endloop
  endfacet
  facet normal 0.951056 0.309017 0
    outer loop
      vertex -16.796 -23.1176 8e-06
      vertex -27.1764 8.83018 1.5e-05
      vertex -27.1764 8.83018 8.83019
    endloop
  endfacet
  facet normal 0.951056 0.309017 0
    outer loop
      vertex -16.796 -23.1176 8.83019
      vertex -16.796 -23.1176 8e-06
      vertex -27.1764 8.83018 8.83019
    endloop
  endfacet
  facet normal 0 1 0
    outer loop
      vertex -16.796 -23.1176 8e-06
      vertex -16.796 -23.1176 8.83019
      vertex 16.796 -23.1176 8e-06
    endloop
  endfacet
  facet normal 0 1 0
    outer loop
      vertex 16.796 -23.1176 8e-06
      vertex -16.796 -23.1176 8.83019
      vertex 16.796 -23.1176 8.83019
    endloop
  endfacet
  facet normal 0.525733 0.723606 -0.447213
    outer loop
      vertex 4.64229 52.6249 33.4562
      vertex 1.1e-05 35.3206 1.5e-05
      vertex 1.1e-05 57.15 35.3207
    endloop
  endfacet
  facet normal -0.525731 0.723607 -0.447213
    outer loop
      vertex 1.1e-05 35.3206 1.5e-05
      vertex -4.64228 34.9646 4.88123
      vertex 1.1e-05 57.15 35.3207
    endloop
  endfacet
  facet normal -0.525731 0.723607 -0.447214
    outer loop
      vertex 1.1e-05 35.3206 1.5e-05
      vertex -31.8187 15.2197 4.88123
      vertex -4.64228 34.9646 4.88123
    endloop
  endfacet
  facet normal 0.525732 0.723607 -0.447212
    outer loop
      vertex 33.5919 10.9147 1.5e-05
      vertex 1.1e-05 35.3206 1.5e-05
      vertex 4.64229 34.9646 4.88123
    endloop
  endfacet
  facet normal 0.525732 0.723606 -0.447213
    outer loop
      vertex 4.64229 34.9646 4.88123
      vertex 1.1e-05 35.3206 1.5e-05
      vertex 4.64229 52.6249 33.4562
    endloop
  endfacet
  facet normal -0.587785 -0.809017 0
    outer loop
      vertex 1.1e-05 28.575 8.83019
      vertex 1.1e-05 28.575 1.5e-05
      vertex 27.1764 8.83018 1.5e-05
    endloop
  endfacet
  facet normal -0.587785 -0.809017 0
    outer loop
      vertex 27.1764 8.83018 8.83019
      vertex 1.1e-05 28.575 8.83019
      vertex 27.1764 8.83018 1.5e-05
    endloop
  endfacet
  facet normal -0.951057 0.309017 0
    outer loop
      vertex 16.796 -23.1176 8e-06
      vertex 16.796 -23.1176 8.83019
      vertex 27.1764 8.83018 1.5e-05
    endloop
  endfacet
  facet normal -0.951057 0.309017 0
    outer loop
      vertex 27.1764 8.83018 1.5e-05
      vertex 16.796 -23.1176 8.83019
      vertex 27.1764 8.83018 8.83019
    endloop
  endfacet
  facet normal -7.95947e-08 2.44969e-07 -1
    outer loop
      vertex 16.796 -23.1176 8e-06
      vertex 27.1764 8.83018 1.5e-05
      vertex 28.2434 9.17686 1.5e-05
    endloop
  endfacet
  facet normal -7.95947e-08 2.44969e-07 -1
    outer loop
      vertex 16.796 -23.1176 8e-06
      vertex 28.2434 9.17686 1.5e-05
      vertex 28.2975 9.01041 1.49549e-05
    endloop
  endfacet
  facet normal -7.95947e-08 2.44969e-07 -1
    outer loop
      vertex 16.796 -23.1176 8e-06
      vertex 28.2975 9.01041 1.49549e-05
      vertex 28.6399 8.93764 1.49098e-05
    endloop
  endfacet
  facet normal -7.95947e-08 2.44969e-07 -1
    outer loop
      vertex 16.796 -23.1176 8e-06
      vertex 28.6399 8.93764 1.49098e-05
      vertex 33.5919 10.9147 1.5e-05
    endloop
  endfacet
  facet normal -7.95947e-08 2.44969e-07 -1
    outer loop
      vertex 28.6399 8.93764 1.49098e-05
      vertex 28.874 9.19774 1.49549e-05
      vertex 33.5919 10.9147 1.5e-05
    endloop
  endfacet
  facet normal -7.95947e-08 2.44969e-07 -1
    outer loop
      vertex 28.82 9.36419 1.5e-05
      vertex 33.5919 10.9147 1.5e-05
      vertex 28.874 9.19774 1.49549e-05
    endloop
  endfacet
  facet normal -0.951057 -0.309017 0
    outer loop
      vertex 28.1893 9.34328 -0.99
      vertex 28.2975 9.01041 -0.99
      vertex 28.1893 9.34328 1.5e-05
    endloop
  endfacet
  facet normal -0.951057 -0.309017 0
    outer loop
      vertex 28.1893 9.34328 1.5e-05
      vertex 28.2975 9.01041 -0.99
      vertex 28.2975 9.01041 1.49549e-05
    endloop
  endfacet
  facet normal -0.951057 -0.309017 0
    outer loop
      vertex 28.1893 9.34328 1.5e-05
      vertex 28.2975 9.01041 1.49549e-05
      vertex 28.2434 9.17686 1.5e-05
    endloop
  endfacet
  facet normal -0.743145 0.669131 0
    outer loop
      vertex 28.1893 9.34328 -0.99
      vertex 28.1893 9.34328 1.5e-05
      vertex 28.4235 9.60338 -0.99
    endloop
  endfacet
  facet normal -0.743145 0.669131 0
    outer loop
      vertex 28.4235 9.60338 -0.99
      vertex 28.1893 9.34328 1.5e-05
      vertex 28.4235 9.60338 1.5e-05
    endloop
  endfacet
  facet normal 0.207912 0.978148 0
    outer loop
      vertex 28.4235 9.60338 -0.99
      vertex 28.4235 9.60338 1.5e-05
      vertex 28.7659 9.53061 -0.99
    endloop
  endfacet
  facet normal 0.207912 0.978148 0
    outer loop
      vertex 28.7659 9.53061 -0.99
      vertex 28.4235 9.60338 1.5e-05
      vertex 28.7659 9.53061 1.5e-05
    endloop
  endfacet
  facet normal 0.951057 0.309017 0
    outer loop
      vertex 28.874 9.19774 -0.99
      vertex 28.7659 9.53061 -0.99
      vertex 28.7659 9.53061 1.5e-05
    endloop
  endfacet
  facet normal 0.951057 0.309017 0
    outer loop
      vertex 28.874 9.19774 1.49549e-05
      vertex 28.874 9.19774 -0.99
      vertex 28.82 9.36419 1.5e-05
    endloop
  endfacet
  facet normal 0.951057 0.309017 0
    outer loop
      vertex 28.82 9.36419 1.5e-05
      vertex 28.874 9.19774 -0.99
      vertex 28.7659 9.53061 1.5e-05
    endloop
  endfacet
  facet normal 0.850651 -0.276392 -0.447214
    outer loop
      vertex 51.4838 11.8469 33.4562
      vertex 33.5919 10.9147 1.5e-05
      vertex 54.3529 17.6603 35.3207
    endloop
  endfacet
  facet normal 0.525731 0.723607 -0.447213
    outer loop
      vertex 33.5919 10.9147 1.5e-05
      vertex 31.8187 15.2197 4.88123
      vertex 54.3529 17.6603 35.3207
    endloop
  endfacet
  facet normal 0.525731 0.723607 -0.447213
    outer loop
      vertex 33.5919 10.9147 1.5e-05
      vertex 4.64229 34.9646 4.88123
      vertex 31.8187 15.2197 4.88123
    endloop
  endfacet
  facet normal 1.68586e-07 1.22485e-07 -1
    outer loop
      vertex 20.7609 -28.575 8e-06
      vertex 16.796 -23.1176 8e-06
      vertex 33.5919 10.9147 1.5e-05
    endloop
  endfacet
  facet normal 0.85065 -0.276393 -0.447215
    outer loop
      vertex 34.6878 6.38957 4.88122
      vertex 20.7609 -28.575 8e-06
      vertex 33.5919 10.9147 1.5e-05
    endloop
  endfacet
  facet normal 0.850651 -0.276392 -0.447214
    outer loop
      vertex 34.6878 6.38957 4.88122
      vertex 33.5919 10.9147 1.5e-05
      vertex 51.4838 11.8469 33.4562
    endloop
  endfacet
  facet normal -0.866025 -0.5 0
    outer loop
      vertex -0.35 30 -0.99
      vertex -0.175 29.6969 -0.99
      vertex -0.35 30 1.5e-05
    endloop
  endfacet
  facet normal -0.866025 -0.5 0
    outer loop
      vertex -0.35 30 1.5e-05
      vertex -0.175 29.6969 -0.99
      vertex -0.175 29.6969 1.5e-05
    endloop
  endfacet
  facet normal -0.866025 0.5 0
    outer loop
      vertex -0.35 30 -0.99
      vertex -0.35 30 1.5e-05
      vertex -0.175 30.3031 -0.99
    endloop
  endfacet
  facet normal -0.866025 0.5 0
    outer loop
      vertex -0.175 30.3031 -0.99
      vertex -0.35 30 1.5e-05
      vertex -0.175 30.3031 1.5e-05
    endloop
  endfacet
  facet normal 0 1 0
    outer loop
      vertex -0.175 30.3031 -0.99
      vertex -0.175 30.3031 1.5e-05
      vertex 0.175 30.3031 -0.99
    endloop
  endfacet
  facet normal 0 1 0
    outer loop
      vertex 0.175 30.3031 -0.99
      vertex -0.175 30.3031 1.5e-05
      vertex 0.175 30.3031 1.5e-05
    endloop
  endfacet
  facet normal 0.866025 0.5 0
    outer loop
      vertex 0.35 30 -0.99
      vertex 0.175 30.3031 -0.99
      vertex 0.175 30.3031 1.5e-05
    endloop
  endfacet
  facet normal 0.866025 0.5 0
    outer loop
      vertex 0.35 30 1.5e-05
      vertex 0.35 30 -0.99
      vertex 0.175 30.3031 1.5e-05
    endloop
  endfacet
  facet normal 0.866025 -0.5 0
    outer loop
      vertex 0.175 29.6969 1.5e-05
      vertex 0.175 29.6969 -0.99
      vertex 0.35 30 -0.99
    endloop
  endfacet
  facet normal 0.866025 -0.5 0
    outer loop
      vertex 0.35 30 1.5e-05
      vertex 0.175 29.6969 1.5e-05
      vertex 0.35 30 -0.99
    endloop
  endfacet
  facet normal 0 -1 0
    outer loop
      vertex -0.175 29.6969 1.5e-05
      vertex -0.175 29.6969 -0.99
      vertex 0.175 29.6969 -0.99
    endloop
  endfacet
  facet normal 0 -1 0
    outer loop
      vertex 0.175 29.6969 1.5e-05
      vertex -0.175 29.6969 1.5e-05
      vertex 0.175 29.6969 -0.99
    endloop
  endfacet
  facet normal 0.587785 -0.361802 0.723608
    outer loop
      vertex -27.1764 45.3031 59.0145
      vertex -27.1764 37.4051 55.0655
      vertex 1.1e-05 54.1332 41.3542
    endloop
  endfacet
  facet normal 0.587786 -0.361805 0.723606
    outer loop
      vertex 1.1e-05 54.1332 41.3542
      vertex -27.1764 37.4051 55.0655
      vertex 1.1e-05 46.2353 37.4052
    endloop
  endfacet
  facet normal -0.587785 -0.361805 0.723606
    outer loop
      vertex 1.1e-05 54.1332 41.3542
      vertex 1.1e-05 46.2353 37.4052
      vertex 27.1764 45.3031 59.0145
    endloop
  endfacet
  facet normal -0.587786 -0.361802 0.723607
    outer loop
      vertex 27.1764 45.3031 59.0145
      vertex 1.1e-05 46.2353 37.4052
      vertex 27.1764 37.4051 55.0655
    endloop
  endfacet
  facet normal 0.262866 -0.638196 -0.723607
    outer loop
      vertex 27.1764 37.4051 55.0655
      vertex 1.1e-05 46.2353 37.4052
      vertex 4.64229 52.6249 33.4562
    endloop
  endfacet
  facet normal 0.850651 -0.447213 0.276393
    outer loop
      vertex 4.64229 52.6249 33.4562
      vertex 1.1e-05 46.2353 37.4052
      vertex 4.64229 34.9646 4.88123
    endloop
  endfacet
  facet normal 0.850652 -0.447212 0.276392
    outer loop
      vertex 1.1e-05 46.2353 37.4052
      vertex 1.1e-05 28.575 8.83019
      vertex 4.64229 34.9646 4.88123
    endloop
  endfacet
  facet normal -0.85065 -0.447214 0.276394
    outer loop
      vertex 1.1e-05 46.2353 37.4052
      vertex -4.64228 52.6249 33.4562
      vertex 1.1e-05 28.575 8.83019
    endloop
  endfacet
  facet normal -0.850651 -0.447214 0.276393
    outer loop
      vertex -4.64228 52.6249 33.4562
      vertex -4.64228 34.9646 4.88123
      vertex 1.1e-05 28.575 8.83019
    endloop
  endfacet
  facet normal -0.525731 0.723607 -0.447213
    outer loop
      vertex 1.1e-05 57.15 35.3207
      vertex -4.64228 34.9646 4.88123
      vertex -4.64228 52.6249 33.4562
    endloop
  endfacet
  facet normal 0.525731 0.723606 -0.447215
    outer loop
      vertex 4.64229 52.6249 33.4562
      vertex 1.1e-05 57.15 35.3207
      vertex 31.8187 43.7947 51.1165
    endloop
  endfacet
  facet normal 0.525731 0.723606 -0.447214
    outer loop
      vertex 31.8187 43.7947 51.1165
      vertex 1.1e-05 57.15 35.3207
      vertex 33.5919 46.2353 57.15
    endloop
  endfacet
  facet normal 8.27072e-07 0.894428 0.447213
    outer loop
      vertex 1.1e-05 57.15 35.3207
      vertex 1.1e-05 54.1332 41.3542
      vertex 33.5919 46.2353 57.15
    endloop
  endfacet
  facet normal -1.29486e-06 0.894428 0.447213
    outer loop
      vertex 1.1e-05 57.15 35.3207
      vertex -27.1764 45.3031 59.0145
      vertex 1.1e-05 54.1332 41.3542
    endloop
  endfacet
  facet normal 0.262866 -0.361804 -0.894427
    outer loop
      vertex 4.64229 -34.9646 87.5894
      vertex 1.1e-05 -28.575 83.6405
      vertex 31.8187 -15.2197 87.5894
    endloop
  endfacet
  facet normal 0.262865 -0.361803 -0.894428
    outer loop
      vertex 31.8187 -15.2197 87.5894
      vertex 1.1e-05 -28.575 83.6405
      vertex 27.1764 -8.83018 83.6405
    endloop
  endfacet
  facet normal 0.425325 0.138196 -0.894427
    outer loop
      vertex 27.1764 -8.83018 83.6405
      vertex 16.796 23.1177 83.6405
      vertex 24.3074 25.5582 87.5894
    endloop
  endfacet
  facet normal 0.425325 -0.861803 -0.276394
    outer loop
      vertex 24.3074 25.5582 87.5894
      vertex 16.796 23.1177 83.6405
      vertex 34.6878 39.8457 59.0145
    endloop
  endfacet
  facet normal 0.425326 -0.861803 -0.276393
    outer loop
      vertex 34.6878 39.8457 59.0145
      vertex 16.796 23.1177 83.6405
      vertex 27.1764 37.4051 55.0655
    endloop
  endfacet
  facet normal -0.951057 0.138197 -0.276393
    outer loop
      vertex 27.1764 37.4051 55.0655
      vertex 16.796 23.1177 83.6405
      vertex 16.796 31.0156 87.5894
    endloop
  endfacet
  facet normal -0.951057 0.138196 -0.276393
    outer loop
      vertex 27.1764 37.4051 55.0655
      vertex 16.796 31.0156 87.5894
      vertex 27.1764 45.3031 59.0145
    endloop
  endfacet
  facet normal -3.30887e-07 0.894427 0.447214
    outer loop
      vertex 27.1764 45.3031 59.0145
      vertex 16.796 31.0156 87.5894
      vertex 20.7609 28.575 92.4706
    endloop
  endfacet
  facet normal -0.68819 -0.670821 -0.276393
    outer loop
      vertex 31.8187 -15.2197 87.5894
      vertex 27.1764 -8.83018 83.6405
      vertex 48.6147 -20.6771 59.0144
    endloop
  endfacet
  facet normal -0.688191 -0.670819 -0.276395
    outer loop
      vertex 48.6147 -20.6771 59.0144
      vertex 27.1764 -8.83018 83.6405
      vertex 43.9724 -14.2875 55.0655
    endloop
  endfacet
  facet normal -0.162461 0.947213 -0.276393
    outer loop
      vertex 43.9724 -14.2875 55.0655
      vertex 27.1764 -8.83018 83.6405
      vertex 34.6878 -6.38957 87.5894
    endloop
  endfacet
  facet normal 0.425324 0.138196 -0.894428
    outer loop
      vertex 27.1764 -8.83018 83.6405
      vertex 24.3074 25.5582 87.5894
      vertex 34.6878 -6.38957 87.5894
    endloop
  endfacet
  facet normal -7.37995e-07 0.894427 0.447214
    outer loop
      vertex 27.1764 45.3031 59.0145
      vertex 20.7609 28.575 92.4706
      vertex 33.5919 46.2353 57.15
    endloop
  endfacet
  facet normal 0.85065 0.276395 0.447214
    outer loop
      vertex 33.5919 46.2353 57.15
      vertex 20.7609 28.575 92.4706
      vertex 24.3074 25.5582 87.5894
    endloop
  endfacet
  facet normal 0.85065 0.276393 0.447216
    outer loop
      vertex 24.3074 25.5582 87.5894
      vertex 20.7609 28.575 92.4706
      vertex 34.6878 -6.38957 87.5894
    endloop
  endfacet
  facet normal -0.16246 0.947214 -0.276393
    outer loop
      vertex 43.9724 -14.2875 55.0655
      vertex 34.6878 -6.38957 87.5894
      vertex 51.4838 -11.8469 59.0144
    endloop
  endfacet
  facet normal -0.52573 0.447214 0.723607
    outer loop
      vertex 43.9724 14.2875 37.4052
      vertex 43.9724 -14.2875 55.0655
      vertex 51.4838 -11.8469 59.0144
    endloop
  endfacet
  facet normal -0.525733 0.447212 0.723606
    outer loop
      vertex 51.4838 16.7281 41.3541
      vertex 43.9724 14.2875 37.4052
      vertex 51.4838 -11.8469 59.0144
    endloop
  endfacet
  facet normal 0.850651 0.276392 0.447213
    outer loop
      vertex 51.4838 16.7281 41.3541
      vertex 51.4838 -11.8469 59.0144
      vertex 54.3529 -17.6603 57.15
    endloop
  endfacet
  facet normal 0.850652 0.276392 0.447212
    outer loop
      vertex 54.3529 17.6603 35.3207
      vertex 51.4838 16.7281 41.3541
      vertex 54.3529 -17.6603 57.15
    endloop
  endfacet
  facet normal 0.850651 -0.276393 -0.447213
    outer loop
      vertex 54.3529 -17.6603 57.15
      vertex 51.4838 -16.7281 51.1165
      vertex 54.3529 17.6603 35.3207
    endloop
  endfacet
  facet normal 0.850651 -0.276393 -0.447213
    outer loop
      vertex 54.3529 -17.6603 57.15
      vertex 34.6878 -39.8457 33.4562
      vertex 51.4838 -16.7281 51.1165
    endloop
  endfacet
  facet normal 0.850651 -0.276394 -0.447213
    outer loop
      vertex 54.3529 -17.6603 57.15
      vertex 33.5919 -46.2353 35.3206
      vertex 34.6878 -39.8457 33.4562
    endloop
  endfacet
  facet normal 0.52573 -0.723607 0.447214
    outer loop
      vertex 48.6147 -20.6771 59.0144
      vertex 33.5919 -46.2353 35.3206
      vertex 54.3529 -17.6603 57.15
    endloop
  endfacet
  facet normal 0.52573 -0.723608 0.447213
    outer loop
      vertex 54.3529 -17.6603 57.15
      vertex 31.8187 -15.2197 87.5894
      vertex 48.6147 -20.6771 59.0144
    endloop
  endfacet
  facet normal 0.262864 0.638198 0.723606
    outer loop
      vertex 27.1764 -37.4051 37.4052
      vertex 4.64229 -52.6249 59.0144
      vertex 31.8187 -43.7947 41.3541
    endloop
  endfacet
  facet normal -1.51988e-07 -0.894427 -0.447214
    outer loop
      vertex 33.5919 -46.2353 35.3206
      vertex 1.1e-05 -54.1332 51.1165
      vertex 27.1764 -45.3031 33.4562
    endloop
  endfacet
  facet normal -0.951057 -0.138196 0.276393
    outer loop
      vertex 27.1764 -37.4051 37.4052
      vertex 16.796 -31.0156 4.88122
      vertex 27.1764 -45.3031 33.4562
    endloop
  endfacet
  facet normal -2.78834e-07 -0.894427 -0.447214
    outer loop
      vertex 27.1764 -45.3031 33.4562
      vertex 20.7609 -28.575 8e-06
      vertex 33.5919 -46.2353 35.3206
    endloop
  endfacet
  facet normal -2.60825e-06 -0.894427 -0.447213
    outer loop
      vertex 27.1764 -45.3031 33.4562
      vertex 16.796 -31.0156 4.88122
      vertex 20.7609 -28.575 8e-06
    endloop
  endfacet
  facet normal -0.951057 -0.138196 0.276393
    outer loop
      vertex 16.796 -23.1176 8.83019
      vertex 16.796 -31.0156 4.88122
      vertex 27.1764 -37.4051 37.4052
    endloop
  endfacet
  facet normal 0.425325 0.861803 0.276394
    outer loop
      vertex 34.6878 -39.8457 33.4562
      vertex 16.796 -23.1176 8.83019
      vertex 27.1764 -37.4051 37.4052
    endloop
  endfacet
  facet normal -0.162458 0.67082 -0.723607
    outer loop
      vertex 34.6878 -39.8457 33.4562
      vertex 27.1764 -37.4051 37.4052
      vertex 51.4838 -16.7281 51.1165
    endloop
  endfacet
  facet normal -0.16246 0.670821 -0.723606
    outer loop
      vertex 51.4838 -16.7281 51.1165
      vertex 27.1764 -37.4051 37.4052
      vertex 43.9724 -14.2875 55.0655
    endloop
  endfacet
  facet normal -0.688192 -0.0527853 0.723606
    outer loop
      vertex 43.9724 -14.2875 55.0655
      vertex 27.1764 -37.4051 37.4052
      vertex 31.8187 -43.7947 41.3541
    endloop
  endfacet
  facet normal -0.688191 -0.0527858 0.723607
    outer loop
      vertex 43.9724 -14.2875 55.0655
      vertex 31.8187 -43.7947 41.3541
      vertex 48.6147 -20.6771 59.0144
    endloop
  endfacet
  facet normal 0.525732 -0.723607 0.447213
    outer loop
      vertex 48.6147 -20.6771 59.0144
      vertex 31.8187 -43.7947 41.3541
      vertex 33.5919 -46.2353 35.3206
    endloop
  endfacet
  facet normal 0.85065 -0.276395 -0.447214
    outer loop
      vertex 33.5919 -46.2353 35.3206
      vertex 24.3074 -25.5582 4.88122
      vertex 34.6878 -39.8457 33.4562
    endloop
  endfacet
  facet normal 0.85065 -0.276394 -0.447214
    outer loop
      vertex 33.5919 -46.2353 35.3206
      vertex 20.7609 -28.575 8e-06
      vertex 24.3074 -25.5582 4.88122
    endloop
  endfacet
  facet normal 0.425325 -0.138197 0.894427
    outer loop
      vertex 27.1764 8.83018 8.83019
      vertex 16.796 -23.1176 8.83019
      vertex 24.3074 -25.5582 4.88122
    endloop
  endfacet
  facet normal 0.425326 0.861803 0.276393
    outer loop
      vertex 24.3074 -25.5582 4.88122
      vertex 16.796 -23.1176 8.83019
      vertex 34.6878 -39.8457 33.4562
    endloop
  endfacet
  facet normal 0.85065 -0.276393 -0.447215
    outer loop
      vertex 24.3074 -25.5582 4.88122
      vertex 20.7609 -28.575 8e-06
      vertex 34.6878 6.38957 4.88122
    endloop
  endfacet
  facet normal 0.587785 0.809017 0
    outer loop
      vertex -17.597 -23.9224 -0.99
      vertex -17.597 -23.9224 8.04507e-06
      vertex -17.3138 -24.1282 -0.99
    endloop
  endfacet
  facet normal 0.587785 0.809017 0
    outer loop
      vertex -17.3138 -24.1282 -0.99
      vertex -17.597 -23.9224 8.04507e-06
      vertex -17.4554 -24.0253 8e-06
    endloop
  endfacet
  facet normal 0.587785 0.809017 0
    outer loop
      vertex -17.3138 -24.1282 -0.99
      vertex -17.4554 -24.0253 8e-06
      vertex -17.3138 -24.1282 8e-06
    endloop
  endfacet
  facet normal 0.994522 -0.104529 0
    outer loop
      vertex -17.3504 -24.4762 8e-06
      vertex -17.3504 -24.4762 -0.99
      vertex -17.3138 -24.1282 -0.99
    endloop
  endfacet
  facet normal 0.994522 -0.104529 0
    outer loop
      vertex -17.3138 -24.1282 8e-06
      vertex -17.3504 -24.4762 8e-06
      vertex -17.3138 -24.1282 -0.99
    endloop
  endfacet
  facet normal 0.406737 -0.913545 0
    outer loop
      vertex -17.6701 -24.6186 8e-06
      vertex -17.6701 -24.6186 -0.99
      vertex -17.3504 -24.4762 -0.99
    endloop
  endfacet
  facet normal 0.406737 -0.913545 0
    outer loop
      vertex -17.3504 -24.4762 8e-06
      vertex -17.6701 -24.6186 8e-06
      vertex -17.3504 -24.4762 -0.99
    endloop
  endfacet
  facet normal -0.587785 -0.809017 0
    outer loop
      vertex -17.9533 -24.4129 8.04507e-06
      vertex -17.9533 -24.4129 -0.99
      vertex -17.6701 -24.6186 -0.99
    endloop
  endfacet
  facet normal -0.587785 -0.809017 0
    outer loop
      vertex -17.8117 -24.5157 8e-06
      vertex -17.9533 -24.4129 8.04507e-06
      vertex -17.6701 -24.6186 -0.99
    endloop
  endfacet
  facet normal -0.587785 -0.809017 0
    outer loop
      vertex -17.6701 -24.6186 8e-06
      vertex -17.8117 -24.5157 8e-06
      vertex -17.6701 -24.6186 -0.99
    endloop
  endfacet
  facet normal -0.994522 0.104529 0
    outer loop
      vertex -17.9533 -24.4129 -0.99
      vertex -17.9533 -24.4129 8.04507e-06
      vertex -17.9167 -24.0648 -0.99
    endloop
  endfacet
  facet normal -0.994522 0.104529 0
    outer loop
      vertex -17.9167 -24.0648 -0.99
      vertex -17.9533 -24.4129 8.04507e-06
      vertex -17.9167 -24.0648 8.09015e-06
    endloop
  endfacet
  facet normal -0.406737 0.913545 0
    outer loop
      vertex -17.9167 -24.0648 -0.99
      vertex -17.9167 -24.0648 8.09015e-06
      vertex -17.597 -23.9224 -0.99
    endloop
  endfacet
  facet normal -0.406737 0.913545 0
    outer loop
      vertex -17.597 -23.9224 -0.99
      vertex -17.9167 -24.0648 8.09015e-06
      vertex -17.597 -23.9224 8.04507e-06
    endloop
  endfacet
  facet normal 0.262865 0.361803 0.894427
    outer loop
      vertex 4.64229 34.9646 4.88123
      vertex 1.1e-05 28.575 8.83019
      vertex 31.8187 15.2197 4.88123
    endloop
  endfacet
  facet normal 0.262865 0.361803 0.894427
    outer loop
      vertex 31.8187 15.2197 4.88123
      vertex 1.1e-05 28.575 8.83019
      vertex 27.1764 8.83018 8.83019
    endloop
  endfacet
  facet normal 0.262866 -0.638196 -0.723607
    outer loop
      vertex 27.1764 37.4051 55.0655
      vertex 4.64229 52.6249 33.4562
      vertex 31.8187 43.7947 51.1165
    endloop
  endfacet
  facet normal -0.68819 0.670821 0.276393
    outer loop
      vertex 31.8187 15.2197 4.88123
      vertex 27.1764 8.83018 8.83019
      vertex 48.6147 20.6771 33.4562
    endloop
  endfacet
  facet normal -0.688191 0.670819 0.276395
    outer loop
      vertex 48.6147 20.6771 33.4562
      vertex 27.1764 8.83018 8.83019
      vertex 43.9724 14.2875 37.4052
    endloop
  endfacet
  facet normal -0.162461 -0.947213 0.276393
    outer loop
      vertex 43.9724 14.2875 37.4052
      vertex 27.1764 8.83018 8.83019
      vertex 34.6878 6.38957 4.88122
    endloop
  endfacet
  facet normal 0.425325 -0.138197 0.894427
    outer loop
      vertex 27.1764 8.83018 8.83019
      vertex 24.3074 -25.5582 4.88122
      vertex 34.6878 6.38957 4.88122
    endloop
  endfacet
  facet normal 0.743145 -0.669131 0
    outer loop
      vertex 28.6399 8.93764 1.49098e-05
      vertex 28.6399 8.93764 -0.99
      vertex 28.874 9.19774 -0.99
    endloop
  endfacet
  facet normal 0.743145 -0.669131 0
    outer loop
      vertex 28.874 9.19774 1.49549e-05
      vertex 28.6399 8.93764 1.49098e-05
      vertex 28.874 9.19774 -0.99
    endloop
  endfacet
  facet normal -0.207912 -0.978148 0
    outer loop
      vertex 28.2975 9.01041 1.49549e-05
      vertex 28.2975 9.01041 -0.99
      vertex 28.6399 8.93764 -0.99
    endloop
  endfacet
  facet normal -0.207912 -0.978148 0
    outer loop
      vertex 28.6399 8.93764 1.49098e-05
      vertex 28.2975 9.01041 1.49549e-05
      vertex 28.6399 8.93764 -0.99
    endloop
  endfacet
  facet normal -0.19661 -0.92498 0.325203
    outer loop
      vertex 28.6399 8.93764 -0.99
      vertex 28.2975 9.01041 -0.99
      vertex 30.0768 4.51523 -12.7
    endloop
  endfacet
  facet normal -0.19661 -0.92498 0.325203
    outer loop
      vertex 28.2975 9.01041 -0.99
      vertex 25.186 5.55479 -12.7
      vertex 30.0768 4.51523 -12.7
    endloop
  endfacet
  facet normal -0.899361 -0.29222 0.325203
    outer loop
      vertex 23.641 10.3101 -12.7
      vertex 25.186 5.55479 -12.7
      vertex 28.1893 9.34328 -0.99
    endloop
  endfacet
  facet normal -0.899361 -0.29222 0.325203
    outer loop
      vertex 28.1893 9.34328 -0.99
      vertex 25.186 5.55479 -12.7
      vertex 28.2975 9.01041 -0.99
    endloop
  endfacet
  facet normal -0.702751 0.63276 0.325203
    outer loop
      vertex 28.4235 9.60338 -0.99
      vertex 23.641 10.3101 -12.7
      vertex 28.1893 9.34328 -0.99
    endloop
  endfacet
  facet normal -0.702751 0.63276 0.325203
    outer loop
      vertex 26.9866 14.0258 -12.7
      vertex 23.641 10.3101 -12.7
      vertex 28.4235 9.60338 -0.99
    endloop
  endfacet
  facet normal 0.19661 0.92498 0.325203
    outer loop
      vertex 28.7659 9.53061 -0.99
      vertex 26.9866 14.0258 -12.7
      vertex 28.4235 9.60338 -0.99
    endloop
  endfacet
  facet normal 0.19661 0.92498 0.325203
    outer loop
      vertex 31.8773 12.9862 -12.7
      vertex 26.9866 14.0258 -12.7
      vertex 28.7659 9.53061 -0.99
    endloop
  endfacet
  facet normal 0.899361 0.29222 0.325203
    outer loop
      vertex 31.8773 12.9862 -12.7
      vertex 28.7659 9.53061 -0.99
      vertex 28.874 9.19774 -0.99
    endloop
  endfacet
  facet normal 0.899361 0.29222 0.325203
    outer loop
      vertex 33.4224 8.23095 -12.7
      vertex 31.8773 12.9862 -12.7
      vertex 28.874 9.19774 -0.99
    endloop
  endfacet
  facet normal 0.702751 -0.63276 0.325203
    outer loop
      vertex 28.874 9.19774 -0.99
      vertex 28.6399 8.93764 -0.99
      vertex 33.4224 8.23095 -12.7
    endloop
  endfacet
  facet normal -0.16246 -0.947214 0.276393
    outer loop
      vertex 43.9724 14.2875 37.4052
      vertex 34.6878 6.38957 4.88122
      vertex 51.4838 11.8469 33.4562
    endloop
  endfacet
  facet normal -0.52573 -0.447214 -0.723607
    outer loop
      vertex 51.4838 11.8469 33.4562
      vertex 43.9724 -14.2875 55.0655
      vertex 43.9724 14.2875 37.4052
    endloop
  endfacet
  facet normal -0.525731 -0.447213 -0.723607
    outer loop
      vertex 51.4838 -16.7281 51.1165
      vertex 43.9724 -14.2875 55.0655
      vertex 51.4838 11.8469 33.4562
    endloop
  endfacet
  facet normal 0.850652 -0.276393 -0.447213
    outer loop
      vertex 54.3529 17.6603 35.3207
      vertex 51.4838 -16.7281 51.1165
      vertex 51.4838 11.8469 33.4562
    endloop
  endfacet
  facet normal 0.850651 0.276395 0.447212
    outer loop
      vertex 54.3529 17.6603 35.3207
      vertex 33.5919 46.2353 57.15
      vertex 51.4838 16.7281 41.3541
    endloop
  endfacet
  facet normal 0.525731 0.723607 -0.447214
    outer loop
      vertex 48.6147 20.6771 33.4562
      vertex 33.5919 46.2353 57.15
      vertex 54.3529 17.6603 35.3207
    endloop
  endfacet
  facet normal 0.525731 0.723607 -0.447213
    outer loop
      vertex 54.3529 17.6603 35.3207
      vertex 31.8187 15.2197 4.88123
      vertex 48.6147 20.6771 33.4562
    endloop
  endfacet
  facet normal 0 -0.945644 0.325203
    outer loop
      vertex -0.175 29.6969 -0.99
      vertex -2.5 25.6699 -12.7
      vertex 2.5 25.6699 -12.7
    endloop
  endfacet
  facet normal 0 -0.945644 0.325203
    outer loop
      vertex 0.175 29.6969 -0.99
      vertex -0.175 29.6969 -0.99
      vertex 2.5 25.6699 -12.7
    endloop
  endfacet
  facet normal -0.818952 -0.472822 0.325203
    outer loop
      vertex -0.35 30 -0.99
      vertex -2.5 25.6699 -12.7
      vertex -0.175 29.6969 -0.99
    endloop
  endfacet
  facet normal -0.818952 -0.472822 0.325203
    outer loop
      vertex -0.35 30 -0.99
      vertex -5 30 -12.7
      vertex -2.5 25.6699 -12.7
    endloop
  endfacet
  facet normal -0.818952 0.472822 0.325203
    outer loop
      vertex -0.175 30.3031 -0.99
      vertex -5 30 -12.7
      vertex -0.35 30 -0.99
    endloop
  endfacet
  facet normal -0.818952 0.472822 0.325203
    outer loop
      vertex -2.5 34.3301 -12.7
      vertex -5 30 -12.7
      vertex -0.175 30.3031 -0.99
    endloop
  endfacet
  facet normal 0 0.945644 0.325203
    outer loop
      vertex -2.5 34.3301 -12.7
      vertex -0.175 30.3031 -0.99
      vertex 2.5 34.3301 -12.7
    endloop
  endfacet
  facet normal 0 0.945644 0.325203
    outer loop
      vertex 2.5 34.3301 -12.7
      vertex -0.175 30.3031 -0.99
      vertex 0.175 30.3031 -0.99
    endloop
  endfacet
  facet normal 0.818952 0.472822 0.325203
    outer loop
      vertex 2.5 34.3301 -12.7
      vertex 0.175 30.3031 -0.99
      vertex 0.35 30 -0.99
    endloop
  endfacet
  facet normal 0.818952 0.472822 0.325203
    outer loop
      vertex 2.5 34.3301 -12.7
      vertex 0.35 30 -0.99
      vertex 5 30 -12.7
    endloop
  endfacet
  facet normal 0.818952 -0.472822 0.325203
    outer loop
      vertex 0.35 30 -0.99
      vertex 0.175 29.6969 -0.99
      vertex 5 30 -12.7
    endloop
  endfacet
  facet normal 0.818952 -0.472822 0.325203
    outer loop
      vertex 5 30 -12.7
      vertex 0.175 29.6969 -0.99
      vertex 2.5 25.6699 -12.7
    endloop
  endfacet
  facet normal -3.97627e-07 0.894427 0.447215
    outer loop
      vertex 33.5919 46.2353 57.15
      vertex 1.1e-05 54.1332 41.3542
      vertex 27.1764 45.3031 59.0145
    endloop
  endfacet
  facet normal -0.162458 -0.670819 0.723608
    outer loop
      vertex 34.6878 39.8457 59.0145
      vertex 27.1764 37.4051 55.0655
      vertex 51.4838 16.7281 41.3541
    endloop
  endfacet
  facet normal -0.162462 -0.670822 0.723605
    outer loop
      vertex 51.4838 16.7281 41.3541
      vertex 27.1764 37.4051 55.0655
      vertex 43.9724 14.2875 37.4052
    endloop
  endfacet
  facet normal -0.68819 0.0527869 -0.723607
    outer loop
      vertex 43.9724 14.2875 37.4052
      vertex 27.1764 37.4051 55.0655
      vertex 31.8187 43.7947 51.1165
    endloop
  endfacet
  facet normal -0.688191 0.0527863 -0.723607
    outer loop
      vertex 43.9724 14.2875 37.4052
      vertex 31.8187 43.7947 51.1165
      vertex 48.6147 20.6771 33.4562
    endloop
  endfacet
  facet normal 0.525731 0.723607 -0.447214
    outer loop
      vertex 48.6147 20.6771 33.4562
      vertex 31.8187 43.7947 51.1165
      vertex 33.5919 46.2353 57.15
    endloop
  endfacet
  facet normal 0.850651 0.276394 0.447213
    outer loop
      vertex 51.4838 16.7281 41.3541
      vertex 33.5919 46.2353 57.15
      vertex 34.6878 39.8457 59.0145
    endloop
  endfacet
  facet normal 0.85065 0.276395 0.447214
    outer loop
      vertex 33.5919 46.2353 57.15
      vertex 24.3074 25.5582 87.5894
      vertex 34.6878 39.8457 59.0145
    endloop
  endfacet
  facet normal 0.555836 0.765042 0.325203
    outer loop
      vertex -17.597 -23.9224 -0.99
      vertex -17.3138 -24.1282 -0.99
      vertex -17.1109 -19.2979 -12.7
    endloop
  endfacet
  facet normal 0.555836 0.765042 0.325203
    outer loop
      vertex -17.1109 -19.2979 -12.7
      vertex -17.3138 -24.1282 -0.99
      vertex -13.0658 -22.2368 -12.7
    endloop
  endfacet
  facet normal 0.940464 -0.0988469 0.325203
    outer loop
      vertex -17.3138 -24.1282 -0.99
      vertex -17.3504 -24.4762 -0.99
      vertex -13.0658 -22.2368 -12.7
    endloop
  endfacet
  facet normal -0.384628 0.863889 0.325203
    outer loop
      vertex -17.597 -23.9224 -0.99
      vertex -21.6786 -21.3316 -12.7
      vertex -17.9167 -24.0648 -0.99
    endloop
  endfacet
  facet normal -0.384628 0.863889 0.325203
    outer loop
      vertex -17.1109 -19.2979 -12.7
      vertex -21.6786 -21.3316 -12.7
      vertex -17.597 -23.9224 -0.99
    endloop
  endfacet
  facet normal 0.940464 -0.0988467 0.325203
    outer loop
      vertex -13.0658 -22.2368 -12.7
      vertex -17.3504 -24.4762 -0.99
      vertex -13.5885 -27.2094 -12.7
    endloop
  endfacet
  facet normal 0.384628 -0.863889 0.325203
    outer loop
      vertex -17.3504 -24.4762 -0.99
      vertex -17.6701 -24.6186 -0.99
      vertex -13.5885 -27.2094 -12.7
    endloop
  endfacet
  facet normal 0.384628 -0.863889 0.325203
    outer loop
      vertex -17.6701 -24.6186 -0.99
      vertex -18.1562 -29.2431 -12.7
      vertex -13.5885 -27.2094 -12.7
    endloop
  endfacet
  facet normal -0.555836 -0.765042 0.325203
    outer loop
      vertex -17.9533 -24.4129 -0.99
      vertex -22.2013 -26.3042 -12.7
      vertex -18.1562 -29.2431 -12.7
    endloop
  endfacet
  facet normal -0.555836 -0.765042 0.325203
    outer loop
      vertex -17.6701 -24.6186 -0.99
      vertex -17.9533 -24.4129 -0.99
      vertex -18.1562 -29.2431 -12.7
    endloop
  endfacet
  facet normal -0.940464 0.0988469 0.325203
    outer loop
      vertex -17.9167 -24.0648 -0.99
      vertex -22.2013 -26.3042 -12.7
      vertex -17.9533 -24.4129 -0.99
    endloop
  endfacet
  facet normal -0.940464 0.0988467 0.325203
    outer loop
      vertex -21.6786 -21.3316 -12.7
      vertex -22.2013 -26.3042 -12.7
      vertex -17.9167 -24.0648 -0.99
    endloop
  endfacet
  facet normal 0.702751 -0.63276 0.325203
    outer loop
      vertex 33.4224 8.23095 -12.7
      vertex 28.6399 8.93764 -0.99
      vertex 30.0768 4.51523 -12.7
    endloop
  endfacet
  facet normal 0 0 -1
    outer loop
      vertex 23.641 10.3101 -12.7
      vertex 26.9866 14.0258 -12.7
      vertex 25.186 5.55479 -12.7
    endloop
  endfacet
  facet normal 0 0 -1
    outer loop
      vertex 25.186 5.55479 -12.7
      vertex 26.9866 14.0258 -12.7
      vertex 31.8773 12.9862 -12.7
    endloop
  endfacet
  facet normal 0 0 -1
    outer loop
      vertex 25.186 5.55479 -12.7
      vertex 31.8773 12.9862 -12.7
      vertex 33.4224 8.23095 -12.7
    endloop
  endfacet
  facet normal 0 0 -1
    outer loop
      vertex 25.186 5.55479 -12.7
      vertex 33.4224 8.23095 -12.7
      vertex 30.0768 4.51523 -12.7
    endloop
  endfacet
  facet normal 0 0 -1
    outer loop
      vertex -5 30 -12.7
      vertex -2.5 34.3301 -12.7
      vertex -2.5 25.6699 -12.7
    endloop
  endfacet
  facet normal 0 0 -1
    outer loop
      vertex -2.5 25.6699 -12.7
      vertex -2.5 34.3301 -12.7
      vertex 2.5 34.3301 -12.7
    endloop
  endfacet
  facet normal 0 0 -1
    outer loop
      vertex -2.5 25.6699 -12.7
      vertex 2.5 34.3301 -12.7
      vertex 5 30 -12.7
    endloop
  endfacet
  facet normal 0 0 -1
    outer loop
      vertex -2.5 25.6699 -12.7
      vertex 5 30 -12.7
      vertex 2.5 25.6699 -12.7
    endloop
  endfacet
  facet normal 0 0 -1
    outer loop
      vertex -22.2013 -26.3042 -12.7
      vertex -21.6786 -21.3316 -12.7
      vertex -18.1562 -29.2431 -12.7
    endloop
  endfacet
  facet normal 0 0 -1
    outer loop
      vertex -18.1562 -29.2431 -12.7
      vertex -21.6786 -21.3316 -12.7
      vertex -17.1109 -19.2979 -12.7
    endloop
  endfacet
  facet normal 0 0 -1
    outer loop
      vertex -18.1562 -29.2431 -12.7
      vertex -17.1109 -19.2979 -12.7
      vertex -13.0658 -22.2368 -12.7
    endloop
  endfacet
  facet normal 0 0 -1
    outer loop
      vertex -18.1562 -29.2431 -12.7
      vertex -13.0658 -22.2368 -12.7
      vertex -13.5885 -27.2094 -12.7
    endloop
  endfacet
endsolid OpenSCAD_Model
